# xmcd CD database file
#
# Track frame offsets:
#	150
#	1817
#	18070
#	36102
#	57260
#	72935
#	90925
#	110510
#	127677
#	143655
#	165395
#	183265
#	200250
#	218607
#	235672
#	251645
#
# Disc length: 3565 seconds
#
# Revision: 0
# Processed by: cddbd v1.5.2PL0 Copyright (c) Steve Scherf et al.
# Submitted via: CDex 1.70beta2
#
DISCID=bb0deb10
DTITLE=Jamey Aebersold - Essential Jazz Standards
DYEAR=1989
DGENRE=Jazz
TTITLE0=Tuning Notes
TTITLE1=Confirmation
TTITLE2=Bernie's Tune
TTITLE3=My Favorite Things
TTITLE4=Bloomdido
TTITLE5=Groovin High
TTITLE6=I'm Old Fashioned
TTITLE7=It Could Happen To You
TTITLE8=Long Ago
TTITLE9=Corcovado (Quiet Nights)
TTITLE10=A Night In Tunisia
TTITLE11=The Girl From Ipanema
TTITLE12=Au Privave
TTITLE13=Ornithology
TTITLE14=Stella By Starlight
TTITLE15=All Or Nothing At All
EXTD=YEAR: 1989
EXTT0=
EXTT1=
EXTT2=
EXTT3=
EXTT4=
EXTT5=
EXTT6=
EXTT7=
EXTT8=
EXTT9=
EXTT10=
EXTT11=
EXTT12=
EXTT13=
EXTT14=
EXTT15=
PLAYORDER=
